<svg width="18" height="18" viewBox="0 0 18 18" fill="none" xmlns="http://www.w3.org/2000/svg">
<path fill-rule="evenodd" clip-rule="evenodd" d="M12.8851 0.675361C14.0839 0.600438 15.266 1.01667 16.1568 1.8325C16.9726 2.72324 17.3888 3.90535 17.3223 5.11244V12.8877C17.3972 14.0948 16.9726 15.2769 16.1651 16.1677C15.2744 16.9835 14.0839 17.3997 12.8851 17.3248H5.10979C3.90269 17.3997 2.72057 16.9835 1.82982 16.1677C1.01399 15.2769 0.597752 14.0948 0.672675 12.8877V5.11244C0.597752 3.90535 1.01399 2.72324 1.82982 1.8325C2.72057 1.01667 3.90269 0.600438 5.10979 0.675361H12.8851ZM8.14833 13.0376L13.7509 7.41838C14.2587 6.90225 14.2587 6.06978 13.7509 5.56197L12.6687 4.47976C12.1526 3.96363 11.3201 3.96363 10.8039 4.47976L10.2462 5.04584C10.1629 5.12909 10.1629 5.27061 10.2462 5.35385C10.2462 5.35385 11.5698 6.66916 11.5948 6.70246C11.6864 6.80236 11.7446 6.93555 11.7446 7.0854C11.7446 7.38509 11.5032 7.63483 11.1952 7.63483C11.0537 7.63483 10.9205 7.57655 10.8289 7.48498L9.43868 6.10308C9.37208 6.03648 9.25553 6.03648 9.18893 6.10308L5.21801 10.074C4.94329 10.3487 4.78512 10.715 4.7768 11.1062L4.72685 13.0792C4.72685 13.1874 4.76015 13.2873 4.83507 13.3622C4.90999 13.4372 5.00989 13.4788 5.11811 13.4788H7.07444C7.47403 13.4788 7.85697 13.3206 8.14833 13.0376Z" fill="#085CB4"/>
</svg>
